<mxfile host="app.diagrams.net" modified="2022-01-14T07:17:39.913Z" agent="5.0 (Windows NT 10.0; Win64; x64) AppleWebKit/537.36 (KHTML, like Gecko) Chrome/97.0.4692.71 Safari/537.36" etag="gLkQz_6Dxdoxe4VPy4kh" version="16.2.6" type="github">
  <diagram id="wuZnrCS4ffUr4uyaoDfu" name="第 1 页">
    <mxGraphModel dx="2062" dy="1113" grid="1" gridSize="10" guides="1" tooltips="1" connect="1" arrows="1" fold="1" page="1" pageScale="1" pageWidth="827" pageHeight="1169" math="0" shadow="0">
      <root>
        <mxCell id="0" />
        <mxCell id="1" parent="0" />
        <mxCell id="jJv5snXdQZRRRIjEyWKy-2" value="" style="group" vertex="1" connectable="0" parent="1">
          <mxGeometry x="49" y="80" width="730" height="80" as="geometry" />
        </mxCell>
        <mxCell id="jJv5snXdQZRRRIjEyWKy-3" value="" style="rounded=0;whiteSpace=wrap;html=1;" vertex="1" parent="jJv5snXdQZRRRIjEyWKy-2">
          <mxGeometry width="730" height="80" as="geometry" />
        </mxCell>
        <mxCell id="jJv5snXdQZRRRIjEyWKy-14" style="edgeStyle=orthogonalEdgeStyle;rounded=0;orthogonalLoop=1;jettySize=auto;html=1;exitX=1;exitY=0.5;exitDx=0;exitDy=0;" edge="1" parent="jJv5snXdQZRRRIjEyWKy-2" source="jJv5snXdQZRRRIjEyWKy-4" target="jJv5snXdQZRRRIjEyWKy-5">
          <mxGeometry relative="1" as="geometry" />
        </mxCell>
        <mxCell id="jJv5snXdQZRRRIjEyWKy-4" value="" style="ellipse;shape=doubleEllipse;whiteSpace=wrap;html=1;aspect=fixed;fillColor=#003333;" vertex="1" parent="jJv5snXdQZRRRIjEyWKy-2">
          <mxGeometry x="30" y="20" width="40" height="40" as="geometry" />
        </mxCell>
        <mxCell id="jJv5snXdQZRRRIjEyWKy-15" style="edgeStyle=orthogonalEdgeStyle;rounded=0;orthogonalLoop=1;jettySize=auto;html=1;exitX=1;exitY=0.5;exitDx=0;exitDy=0;entryX=0;entryY=0.5;entryDx=0;entryDy=0;" edge="1" parent="jJv5snXdQZRRRIjEyWKy-2" source="jJv5snXdQZRRRIjEyWKy-5" target="jJv5snXdQZRRRIjEyWKy-6">
          <mxGeometry relative="1" as="geometry" />
        </mxCell>
        <mxCell id="jJv5snXdQZRRRIjEyWKy-5" value="" style="ellipse;shape=doubleEllipse;whiteSpace=wrap;html=1;aspect=fixed;fillColor=#003333;" vertex="1" parent="jJv5snXdQZRRRIjEyWKy-2">
          <mxGeometry x="109" y="20" width="40" height="40" as="geometry" />
        </mxCell>
        <mxCell id="jJv5snXdQZRRRIjEyWKy-16" style="edgeStyle=orthogonalEdgeStyle;rounded=0;orthogonalLoop=1;jettySize=auto;html=1;exitX=1;exitY=0.5;exitDx=0;exitDy=0;entryX=0;entryY=0.5;entryDx=0;entryDy=0;" edge="1" parent="jJv5snXdQZRRRIjEyWKy-2" source="jJv5snXdQZRRRIjEyWKy-6" target="jJv5snXdQZRRRIjEyWKy-7">
          <mxGeometry relative="1" as="geometry" />
        </mxCell>
        <mxCell id="jJv5snXdQZRRRIjEyWKy-6" value="" style="ellipse;shape=doubleEllipse;whiteSpace=wrap;html=1;aspect=fixed;fillColor=#003333;" vertex="1" parent="jJv5snXdQZRRRIjEyWKy-2">
          <mxGeometry x="188" y="20" width="40" height="40" as="geometry" />
        </mxCell>
        <mxCell id="jJv5snXdQZRRRIjEyWKy-17" style="edgeStyle=orthogonalEdgeStyle;rounded=0;orthogonalLoop=1;jettySize=auto;html=1;exitX=1;exitY=0.5;exitDx=0;exitDy=0;entryX=0;entryY=0.5;entryDx=0;entryDy=0;" edge="1" parent="jJv5snXdQZRRRIjEyWKy-2" source="jJv5snXdQZRRRIjEyWKy-7" target="jJv5snXdQZRRRIjEyWKy-8">
          <mxGeometry relative="1" as="geometry" />
        </mxCell>
        <mxCell id="jJv5snXdQZRRRIjEyWKy-7" value="" style="ellipse;shape=doubleEllipse;whiteSpace=wrap;html=1;aspect=fixed;fillColor=#003333;" vertex="1" parent="jJv5snXdQZRRRIjEyWKy-2">
          <mxGeometry x="266" y="20" width="40" height="40" as="geometry" />
        </mxCell>
        <mxCell id="jJv5snXdQZRRRIjEyWKy-18" style="edgeStyle=orthogonalEdgeStyle;rounded=0;orthogonalLoop=1;jettySize=auto;html=1;exitX=1;exitY=0.5;exitDx=0;exitDy=0;" edge="1" parent="jJv5snXdQZRRRIjEyWKy-2" source="jJv5snXdQZRRRIjEyWKy-8" target="jJv5snXdQZRRRIjEyWKy-9">
          <mxGeometry relative="1" as="geometry" />
        </mxCell>
        <mxCell id="jJv5snXdQZRRRIjEyWKy-8" value="" style="ellipse;shape=doubleEllipse;whiteSpace=wrap;html=1;aspect=fixed;fillColor=#003333;" vertex="1" parent="jJv5snXdQZRRRIjEyWKy-2">
          <mxGeometry x="345" y="20" width="40" height="40" as="geometry" />
        </mxCell>
        <mxCell id="jJv5snXdQZRRRIjEyWKy-19" style="edgeStyle=orthogonalEdgeStyle;rounded=0;orthogonalLoop=1;jettySize=auto;html=1;exitX=1;exitY=0.5;exitDx=0;exitDy=0;entryX=0;entryY=0.5;entryDx=0;entryDy=0;" edge="1" parent="jJv5snXdQZRRRIjEyWKy-2" source="jJv5snXdQZRRRIjEyWKy-9" target="jJv5snXdQZRRRIjEyWKy-10">
          <mxGeometry relative="1" as="geometry" />
        </mxCell>
        <mxCell id="jJv5snXdQZRRRIjEyWKy-9" value="" style="ellipse;shape=doubleEllipse;whiteSpace=wrap;html=1;aspect=fixed;fillColor=#003333;" vertex="1" parent="jJv5snXdQZRRRIjEyWKy-2">
          <mxGeometry x="424" y="20" width="40" height="40" as="geometry" />
        </mxCell>
        <mxCell id="jJv5snXdQZRRRIjEyWKy-20" style="edgeStyle=orthogonalEdgeStyle;rounded=0;orthogonalLoop=1;jettySize=auto;html=1;exitX=1;exitY=0.5;exitDx=0;exitDy=0;entryX=0;entryY=0.5;entryDx=0;entryDy=0;" edge="1" parent="jJv5snXdQZRRRIjEyWKy-2" source="jJv5snXdQZRRRIjEyWKy-10" target="jJv5snXdQZRRRIjEyWKy-11">
          <mxGeometry relative="1" as="geometry" />
        </mxCell>
        <mxCell id="jJv5snXdQZRRRIjEyWKy-10" value="" style="ellipse;shape=doubleEllipse;whiteSpace=wrap;html=1;aspect=fixed;fillColor=#003333;" vertex="1" parent="jJv5snXdQZRRRIjEyWKy-2">
          <mxGeometry x="503" y="20" width="40" height="40" as="geometry" />
        </mxCell>
        <mxCell id="jJv5snXdQZRRRIjEyWKy-21" style="edgeStyle=orthogonalEdgeStyle;rounded=0;orthogonalLoop=1;jettySize=auto;html=1;exitX=1;exitY=0.5;exitDx=0;exitDy=0;entryX=0;entryY=0.5;entryDx=0;entryDy=0;" edge="1" parent="jJv5snXdQZRRRIjEyWKy-2" source="jJv5snXdQZRRRIjEyWKy-11" target="jJv5snXdQZRRRIjEyWKy-12">
          <mxGeometry relative="1" as="geometry" />
        </mxCell>
        <mxCell id="jJv5snXdQZRRRIjEyWKy-11" value="" style="ellipse;shape=doubleEllipse;whiteSpace=wrap;html=1;aspect=fixed;fillColor=#003333;" vertex="1" parent="jJv5snXdQZRRRIjEyWKy-2">
          <mxGeometry x="581" y="20" width="40" height="40" as="geometry" />
        </mxCell>
        <mxCell id="jJv5snXdQZRRRIjEyWKy-12" value="" style="ellipse;shape=doubleEllipse;whiteSpace=wrap;html=1;aspect=fixed;fillColor=#003333;" vertex="1" parent="jJv5snXdQZRRRIjEyWKy-2">
          <mxGeometry x="660" y="20" width="40" height="40" as="geometry" />
        </mxCell>
        <mxCell id="jJv5snXdQZRRRIjEyWKy-24" value="" style="group" vertex="1" connectable="0" parent="1">
          <mxGeometry x="49" y="360" width="730" height="80" as="geometry" />
        </mxCell>
        <mxCell id="jJv5snXdQZRRRIjEyWKy-25" value="" style="rounded=0;whiteSpace=wrap;html=1;" vertex="1" parent="jJv5snXdQZRRRIjEyWKy-24">
          <mxGeometry width="730" height="80" as="geometry" />
        </mxCell>
        <mxCell id="jJv5snXdQZRRRIjEyWKy-26" style="edgeStyle=orthogonalEdgeStyle;rounded=0;orthogonalLoop=1;jettySize=auto;html=1;exitX=1;exitY=0.5;exitDx=0;exitDy=0;" edge="1" parent="jJv5snXdQZRRRIjEyWKy-24" source="jJv5snXdQZRRRIjEyWKy-27" target="jJv5snXdQZRRRIjEyWKy-29">
          <mxGeometry relative="1" as="geometry" />
        </mxCell>
        <mxCell id="jJv5snXdQZRRRIjEyWKy-27" value="" style="ellipse;shape=doubleEllipse;whiteSpace=wrap;html=1;aspect=fixed;fillColor=#003333;" vertex="1" parent="jJv5snXdQZRRRIjEyWKy-24">
          <mxGeometry x="30" y="20" width="40" height="40" as="geometry" />
        </mxCell>
        <mxCell id="jJv5snXdQZRRRIjEyWKy-28" style="edgeStyle=orthogonalEdgeStyle;rounded=0;orthogonalLoop=1;jettySize=auto;html=1;exitX=1;exitY=0.5;exitDx=0;exitDy=0;entryX=0;entryY=0.5;entryDx=0;entryDy=0;" edge="1" parent="jJv5snXdQZRRRIjEyWKy-24" source="jJv5snXdQZRRRIjEyWKy-29" target="jJv5snXdQZRRRIjEyWKy-31">
          <mxGeometry relative="1" as="geometry" />
        </mxCell>
        <mxCell id="jJv5snXdQZRRRIjEyWKy-29" value="" style="ellipse;shape=doubleEllipse;whiteSpace=wrap;html=1;aspect=fixed;fillColor=#003333;" vertex="1" parent="jJv5snXdQZRRRIjEyWKy-24">
          <mxGeometry x="109" y="20" width="40" height="40" as="geometry" />
        </mxCell>
        <mxCell id="jJv5snXdQZRRRIjEyWKy-30" style="edgeStyle=orthogonalEdgeStyle;rounded=0;orthogonalLoop=1;jettySize=auto;html=1;exitX=1;exitY=0.5;exitDx=0;exitDy=0;entryX=0;entryY=0.5;entryDx=0;entryDy=0;" edge="1" parent="jJv5snXdQZRRRIjEyWKy-24" source="jJv5snXdQZRRRIjEyWKy-31" target="jJv5snXdQZRRRIjEyWKy-33">
          <mxGeometry relative="1" as="geometry" />
        </mxCell>
        <mxCell id="jJv5snXdQZRRRIjEyWKy-53" style="edgeStyle=orthogonalEdgeStyle;rounded=0;orthogonalLoop=1;jettySize=auto;html=1;exitX=0;exitY=0.5;exitDx=0;exitDy=0;entryX=1;entryY=0.5;entryDx=0;entryDy=0;" edge="1" parent="jJv5snXdQZRRRIjEyWKy-24" source="jJv5snXdQZRRRIjEyWKy-31" target="jJv5snXdQZRRRIjEyWKy-29">
          <mxGeometry relative="1" as="geometry" />
        </mxCell>
        <mxCell id="jJv5snXdQZRRRIjEyWKy-31" value="" style="ellipse;shape=doubleEllipse;whiteSpace=wrap;html=1;aspect=fixed;fillColor=#003333;" vertex="1" parent="jJv5snXdQZRRRIjEyWKy-24">
          <mxGeometry x="188" y="20" width="40" height="40" as="geometry" />
        </mxCell>
        <mxCell id="jJv5snXdQZRRRIjEyWKy-32" style="edgeStyle=orthogonalEdgeStyle;rounded=0;orthogonalLoop=1;jettySize=auto;html=1;exitX=1;exitY=0.5;exitDx=0;exitDy=0;entryX=0;entryY=0.5;entryDx=0;entryDy=0;" edge="1" parent="jJv5snXdQZRRRIjEyWKy-24" source="jJv5snXdQZRRRIjEyWKy-33" target="jJv5snXdQZRRRIjEyWKy-35">
          <mxGeometry relative="1" as="geometry" />
        </mxCell>
        <mxCell id="jJv5snXdQZRRRIjEyWKy-52" style="edgeStyle=orthogonalEdgeStyle;rounded=0;orthogonalLoop=1;jettySize=auto;html=1;exitX=0;exitY=0.5;exitDx=0;exitDy=0;entryX=1;entryY=0.5;entryDx=0;entryDy=0;" edge="1" parent="jJv5snXdQZRRRIjEyWKy-24" source="jJv5snXdQZRRRIjEyWKy-33" target="jJv5snXdQZRRRIjEyWKy-31">
          <mxGeometry relative="1" as="geometry" />
        </mxCell>
        <mxCell id="jJv5snXdQZRRRIjEyWKy-33" value="" style="ellipse;shape=doubleEllipse;whiteSpace=wrap;html=1;aspect=fixed;fillColor=#003333;" vertex="1" parent="jJv5snXdQZRRRIjEyWKy-24">
          <mxGeometry x="266" y="20" width="40" height="40" as="geometry" />
        </mxCell>
        <mxCell id="jJv5snXdQZRRRIjEyWKy-34" style="edgeStyle=orthogonalEdgeStyle;rounded=0;orthogonalLoop=1;jettySize=auto;html=1;exitX=1;exitY=0.5;exitDx=0;exitDy=0;" edge="1" parent="jJv5snXdQZRRRIjEyWKy-24" source="jJv5snXdQZRRRIjEyWKy-35" target="jJv5snXdQZRRRIjEyWKy-37">
          <mxGeometry relative="1" as="geometry" />
        </mxCell>
        <mxCell id="jJv5snXdQZRRRIjEyWKy-51" style="edgeStyle=orthogonalEdgeStyle;rounded=0;orthogonalLoop=1;jettySize=auto;html=1;exitX=0;exitY=0.5;exitDx=0;exitDy=0;entryX=1;entryY=0.5;entryDx=0;entryDy=0;" edge="1" parent="jJv5snXdQZRRRIjEyWKy-24" source="jJv5snXdQZRRRIjEyWKy-35" target="jJv5snXdQZRRRIjEyWKy-33">
          <mxGeometry relative="1" as="geometry" />
        </mxCell>
        <mxCell id="jJv5snXdQZRRRIjEyWKy-35" value="" style="ellipse;shape=doubleEllipse;whiteSpace=wrap;html=1;aspect=fixed;fillColor=#003333;" vertex="1" parent="jJv5snXdQZRRRIjEyWKy-24">
          <mxGeometry x="345" y="20" width="40" height="40" as="geometry" />
        </mxCell>
        <mxCell id="jJv5snXdQZRRRIjEyWKy-36" style="edgeStyle=orthogonalEdgeStyle;rounded=0;orthogonalLoop=1;jettySize=auto;html=1;exitX=1;exitY=0.5;exitDx=0;exitDy=0;entryX=0;entryY=0.5;entryDx=0;entryDy=0;" edge="1" parent="jJv5snXdQZRRRIjEyWKy-24" source="jJv5snXdQZRRRIjEyWKy-37" target="jJv5snXdQZRRRIjEyWKy-39">
          <mxGeometry relative="1" as="geometry" />
        </mxCell>
        <mxCell id="jJv5snXdQZRRRIjEyWKy-49" style="edgeStyle=orthogonalEdgeStyle;rounded=0;orthogonalLoop=1;jettySize=auto;html=1;exitX=0;exitY=0.5;exitDx=0;exitDy=0;entryX=1;entryY=0.5;entryDx=0;entryDy=0;" edge="1" parent="jJv5snXdQZRRRIjEyWKy-24" source="jJv5snXdQZRRRIjEyWKy-37" target="jJv5snXdQZRRRIjEyWKy-35">
          <mxGeometry relative="1" as="geometry" />
        </mxCell>
        <mxCell id="jJv5snXdQZRRRIjEyWKy-37" value="" style="ellipse;shape=doubleEllipse;whiteSpace=wrap;html=1;aspect=fixed;fillColor=#003333;" vertex="1" parent="jJv5snXdQZRRRIjEyWKy-24">
          <mxGeometry x="424" y="20" width="40" height="40" as="geometry" />
        </mxCell>
        <mxCell id="jJv5snXdQZRRRIjEyWKy-38" style="edgeStyle=orthogonalEdgeStyle;rounded=0;orthogonalLoop=1;jettySize=auto;html=1;exitX=1;exitY=0.5;exitDx=0;exitDy=0;entryX=0;entryY=0.5;entryDx=0;entryDy=0;" edge="1" parent="jJv5snXdQZRRRIjEyWKy-24" source="jJv5snXdQZRRRIjEyWKy-39" target="jJv5snXdQZRRRIjEyWKy-41">
          <mxGeometry relative="1" as="geometry" />
        </mxCell>
        <mxCell id="jJv5snXdQZRRRIjEyWKy-48" style="edgeStyle=orthogonalEdgeStyle;rounded=0;orthogonalLoop=1;jettySize=auto;html=1;exitX=0;exitY=0.5;exitDx=0;exitDy=0;entryX=1;entryY=0.5;entryDx=0;entryDy=0;" edge="1" parent="jJv5snXdQZRRRIjEyWKy-24" source="jJv5snXdQZRRRIjEyWKy-39" target="jJv5snXdQZRRRIjEyWKy-37">
          <mxGeometry relative="1" as="geometry" />
        </mxCell>
        <mxCell id="jJv5snXdQZRRRIjEyWKy-39" value="" style="ellipse;shape=doubleEllipse;whiteSpace=wrap;html=1;aspect=fixed;fillColor=#003333;" vertex="1" parent="jJv5snXdQZRRRIjEyWKy-24">
          <mxGeometry x="503" y="20" width="40" height="40" as="geometry" />
        </mxCell>
        <mxCell id="jJv5snXdQZRRRIjEyWKy-40" style="edgeStyle=orthogonalEdgeStyle;rounded=0;orthogonalLoop=1;jettySize=auto;html=1;exitX=1;exitY=0.5;exitDx=0;exitDy=0;entryX=0;entryY=0.5;entryDx=0;entryDy=0;" edge="1" parent="jJv5snXdQZRRRIjEyWKy-24" source="jJv5snXdQZRRRIjEyWKy-41" target="jJv5snXdQZRRRIjEyWKy-42">
          <mxGeometry relative="1" as="geometry" />
        </mxCell>
        <mxCell id="jJv5snXdQZRRRIjEyWKy-47" style="edgeStyle=orthogonalEdgeStyle;rounded=0;orthogonalLoop=1;jettySize=auto;html=1;exitX=0;exitY=0.5;exitDx=0;exitDy=0;entryX=1;entryY=0.5;entryDx=0;entryDy=0;" edge="1" parent="jJv5snXdQZRRRIjEyWKy-24" source="jJv5snXdQZRRRIjEyWKy-41" target="jJv5snXdQZRRRIjEyWKy-39">
          <mxGeometry relative="1" as="geometry" />
        </mxCell>
        <mxCell id="jJv5snXdQZRRRIjEyWKy-41" value="" style="ellipse;shape=doubleEllipse;whiteSpace=wrap;html=1;aspect=fixed;fillColor=#003333;" vertex="1" parent="jJv5snXdQZRRRIjEyWKy-24">
          <mxGeometry x="581" y="20" width="40" height="40" as="geometry" />
        </mxCell>
        <mxCell id="jJv5snXdQZRRRIjEyWKy-45" style="edgeStyle=orthogonalEdgeStyle;rounded=0;orthogonalLoop=1;jettySize=auto;html=1;exitX=0;exitY=0.5;exitDx=0;exitDy=0;entryX=1;entryY=0.5;entryDx=0;entryDy=0;" edge="1" parent="jJv5snXdQZRRRIjEyWKy-24" source="jJv5snXdQZRRRIjEyWKy-42" target="jJv5snXdQZRRRIjEyWKy-41">
          <mxGeometry relative="1" as="geometry" />
        </mxCell>
        <mxCell id="jJv5snXdQZRRRIjEyWKy-42" value="" style="ellipse;shape=doubleEllipse;whiteSpace=wrap;html=1;aspect=fixed;fillColor=#003333;" vertex="1" parent="jJv5snXdQZRRRIjEyWKy-24">
          <mxGeometry x="660" y="20" width="40" height="40" as="geometry" />
        </mxCell>
        <mxCell id="jJv5snXdQZRRRIjEyWKy-54" style="edgeStyle=orthogonalEdgeStyle;rounded=0;orthogonalLoop=1;jettySize=auto;html=1;exitX=0;exitY=0.5;exitDx=0;exitDy=0;" edge="1" parent="1" source="jJv5snXdQZRRRIjEyWKy-29">
          <mxGeometry relative="1" as="geometry">
            <mxPoint x="120" y="400" as="targetPoint" />
          </mxGeometry>
        </mxCell>
        <mxCell id="jJv5snXdQZRRRIjEyWKy-55" value="" style="ellipse;whiteSpace=wrap;html=1;aspect=fixed;" vertex="1" parent="1">
          <mxGeometry x="310" y="600" width="260" height="260" as="geometry" />
        </mxCell>
        <mxCell id="jJv5snXdQZRRRIjEyWKy-56" value="" style="ellipse;whiteSpace=wrap;html=1;aspect=fixed;fillColor=#00331A;" vertex="1" parent="1">
          <mxGeometry x="310" y="630" width="50" height="50" as="geometry" />
        </mxCell>
        <mxCell id="jJv5snXdQZRRRIjEyWKy-57" value="" style="ellipse;whiteSpace=wrap;html=1;aspect=fixed;fillColor=#003300;" vertex="1" parent="1">
          <mxGeometry x="380" y="585" width="50" height="50" as="geometry" />
        </mxCell>
        <mxCell id="jJv5snXdQZRRRIjEyWKy-58" value="" style="ellipse;whiteSpace=wrap;html=1;aspect=fixed;fillColor=#003300;" vertex="1" parent="1">
          <mxGeometry x="480" y="595" width="50" height="50" as="geometry" />
        </mxCell>
        <mxCell id="jJv5snXdQZRRRIjEyWKy-59" value="" style="ellipse;whiteSpace=wrap;html=1;aspect=fixed;fillColor=#003300;" vertex="1" parent="1">
          <mxGeometry x="530" y="660" width="50" height="50" as="geometry" />
        </mxCell>
        <mxCell id="jJv5snXdQZRRRIjEyWKy-60" value="" style="ellipse;whiteSpace=wrap;html=1;aspect=fixed;fillColor=#003300;" vertex="1" parent="1">
          <mxGeometry x="540" y="740" width="50" height="50" as="geometry" />
        </mxCell>
        <mxCell id="jJv5snXdQZRRRIjEyWKy-61" value="" style="ellipse;whiteSpace=wrap;html=1;aspect=fixed;fillColor=#003300;" vertex="1" parent="1">
          <mxGeometry x="490" y="810" width="50" height="50" as="geometry" />
        </mxCell>
        <mxCell id="jJv5snXdQZRRRIjEyWKy-62" value="" style="ellipse;whiteSpace=wrap;html=1;aspect=fixed;fillColor=#003300;" vertex="1" parent="1">
          <mxGeometry x="400" y="830" width="50" height="50" as="geometry" />
        </mxCell>
        <mxCell id="jJv5snXdQZRRRIjEyWKy-63" value="" style="ellipse;whiteSpace=wrap;html=1;aspect=fixed;fillColor=#003300;" vertex="1" parent="1">
          <mxGeometry x="310" y="790" width="50" height="50" as="geometry" />
        </mxCell>
        <mxCell id="jJv5snXdQZRRRIjEyWKy-64" value="" style="ellipse;whiteSpace=wrap;html=1;aspect=fixed;fillColor=#003300;" vertex="1" parent="1">
          <mxGeometry x="280" y="710" width="50" height="50" as="geometry" />
        </mxCell>
      </root>
    </mxGraphModel>
  </diagram>
</mxfile>
